HIERARCHY
ROOT hip
{
  OFFSET 0 0 0
  CHANNELS 6 Xposition Yposition Zposition Zrotation Yrotation Xrotation
  JOINT abdomen
  {
    OFFSET 0 20.6881 -0.73152
    CHANNELS 3 Zrotation Xrotation Yrotation
    JOINT chest
    {
      OFFSET 0 11.7043 -0.48768
      CHANNELS 3 Zrotation Xrotation Yrotation
      JOINT neck
      {
        OFFSET 0 22.1894 -2.19456
        CHANNELS 3 Zrotation Xrotation Yrotation
        JOINT head
        {
          OFFSET -0.24384 7.07133 1.2192
          CHANNELS 3 Zrotation Xrotation Yrotation
          JOINT leftEye
          {
            OFFSET 4.14528 8.04674 8.04672
            CHANNELS 3 Zrotation Xrotation Yrotation
            End Site
            {
              OFFSET 1 0 0
            }
          }
          JOINT rightEye
          {
            OFFSET -3.6576 8.04674 8.04672
            CHANNELS 3 Zrotation Xrotation Yrotation
            End Site
            {
              OFFSET 1 0 0
            }
          }
        }
      }
      JOINT rCollar
      {
        OFFSET -2.68224 19.2634 -4.8768
        CHANNELS 3 Zrotation Xrotation Yrotation
        JOINT rShldr
        {
          OFFSET -8.77824 -1.95073 1.46304
          CHANNELS 3 Zrotation Xrotation Yrotation
          JOINT rForeArm
          {
            OFFSET -28.1742 -1.7115 0.48768
            CHANNELS 3 Zrotation Xrotation Yrotation
            JOINT rHand
            {
              OFFSET -22.5879 0.773209 7.07136
              CHANNELS 3 Zrotation Xrotation Yrotation
              JOINT rThumb1
              {
                OFFSET -1.2192 -0.487915 3.41376
                CHANNELS 3 Zrotation Xrotation Yrotation
                JOINT rThumb2
                {
                  OFFSET -3.37035 -0.52449 3.41376
                  CHANNELS 3 Zrotation Xrotation Yrotation
                  End Site
                  {
                    OFFSET -1.78271 -1.18214 1.43049
                  }
                }
              }
              JOINT rIndex1
              {
                OFFSET -7.75947 0.938293 5.60832
                CHANNELS 3 Zrotation Xrotation Yrotation
                JOINT rIndex2
                {
                  OFFSET -2.54057 -0.884171 1.56538
                  CHANNELS 3 Zrotation Xrotation Yrotation
                  End Site
                  {
                    OFFSET -1.62519 -0.234802 1.16502
                  }
                }
              }
              JOINT rMid1
              {
                OFFSET -8.24714 1.18213 3.41376
                CHANNELS 3 Zrotation Xrotation Yrotation
                JOINT rMid2
                {
                  OFFSET -3.10165 -0.590103 1.0647
                  CHANNELS 3 Zrotation Xrotation Yrotation
                  End Site
                  {
                    OFFSET -2.48547 -0.328903 0.83742
                  }
                }
              }
              JOINT rRing1
              {
                OFFSET -8.82822 0.546677 1.51678
                CHANNELS 3 Zrotation Xrotation Yrotation
                JOINT rRing2
                {
                  OFFSET -2.60934 -0.819778 -0.0198488
                  CHANNELS 3 Zrotation Xrotation Yrotation
                  End Site
                  {
                    OFFSET -2.33842 -0.294052 0.168128
                  }
                }
              }
              JOINT rPinky1
              {
                OFFSET -8.27202 -0.0477905 -0.4584
                CHANNELS 3 Zrotation Xrotation Yrotation
                JOINT rPinky2
                {
                  OFFSET -1.82734 -0.647385 -0.700984
                  CHANNELS 3 Zrotation Xrotation Yrotation
                  End Site
                  {
                    OFFSET -1.69225 -0.51767 -0.607171
                  }
                }
              }
            }
          }
        }
      }
      JOINT lCollar
      {
        OFFSET 2.68224 19.2634 -4.8768
        CHANNELS 3 Zrotation Xrotation Yrotation
        JOINT lShldr
        {
          OFFSET 8.77824 -1.95073 1.46304
          CHANNELS 3 Zrotation Xrotation Yrotation
          JOINT lForeArm
          {
            OFFSET 28.1742 -1.7115 0.48768
            CHANNELS 3 Zrotation Xrotation Yrotation
            JOINT lHand
            {
              OFFSET 22.5879 0.773209 7.07136
              CHANNELS 3 Zrotation Xrotation Yrotation
              JOINT lThumb1
              {
                OFFSET 1.2192 -0.487915 3.41376
                CHANNELS 3 Zrotation Xrotation Yrotation
                JOINT lThumb2
                {
                  OFFSET 3.37035 -0.52449 3.41376
                  CHANNELS 3 Zrotation Xrotation Yrotation
                  End Site
                  {
                    OFFSET 1.78271 -1.18214 1.43049
                  }
                }
              }
              JOINT lIndex1
              {
                OFFSET 7.75947 0.938293 5.60832
                CHANNELS 3 Zrotation Xrotation Yrotation
                JOINT lIndex2
                {
                  OFFSET 2.54057 -0.884171 1.56538
                  CHANNELS 3 Zrotation Xrotation Yrotation
                  End Site
                  {
                    OFFSET 1.62519 -0.234802 1.16502
                  }
                }
              }
              JOINT lMid1
              {
                OFFSET 8.24714 1.18213 3.41376
                CHANNELS 3 Zrotation Xrotation Yrotation
                JOINT lMid2
                {
                  OFFSET 3.10165 -0.590103 1.0647
                  CHANNELS 3 Zrotation Xrotation Yrotation
                  End Site
                  {
                    OFFSET 2.48547 -0.328903 0.83742
                  }
                }
              }
              JOINT lRing1
              {
                OFFSET 8.82822 0.546677 1.51678
                CHANNELS 3 Zrotation Xrotation Yrotation
                JOINT lRing2
                {
                  OFFSET 2.60934 -0.819778 -0.0198488
                  CHANNELS 3 Zrotation Xrotation Yrotation
                  End Site
                  {
                    OFFSET 2.33842 -0.294052 0.168128
                  }
                }
              }
              JOINT lPinky1
              {
                OFFSET 8.27202 -0.0477905 -0.4584
                CHANNELS 3 Zrotation Xrotation Yrotation
                JOINT lPinky2
                {
                  OFFSET 1.82734 -0.647385 -0.700984
                  CHANNELS 3 Zrotation Xrotation Yrotation
                  End Site
                  {
                    OFFSET 1.69225 -0.51767 -0.607171
                  }
                }
              }
            }
          }
        }
      }
    }
  }
  JOINT rButtock
  {
    OFFSET -8.77824 4.35084 1.2192
    CHANNELS 3 Zrotation Xrotation Yrotation
    JOINT rThigh
    {
      OFFSET 0 -1.70687 -2.19456
      CHANNELS 3 Zrotation Xrotation Yrotation
      JOINT rShin
      {
        OFFSET 0 -36.8199 0.73152
        CHANNELS 3 Zrotation Xrotation Yrotation
        JOINT rFoot
        {
          OFFSET 0.73152 -45.1104 -5.12064
          CHANNELS 3 Zrotation Xrotation Yrotation
          End Site
          {
            OFFSET -1.1221 -3.69964 12.103
          }
        }
      }
    }
  }
  JOINT lButtock
  {
    OFFSET 8.77824 4.35084 1.2192
    CHANNELS 3 Zrotation Xrotation Yrotation
    JOINT lThigh
    {
      OFFSET 0 -1.70687 -2.19456
      CHANNELS 3 Zrotation Xrotation Yrotation
      JOINT lShin
      {
        OFFSET 0 -36.8199 0.73152
        CHANNELS 3 Zrotation Xrotation Yrotation
        JOINT lFoot
        {
          OFFSET -0.73152 -45.1104 -5.12064
          CHANNELS 3 Zrotation Xrotation Yrotation
          End Site
          {
            OFFSET 1.1221 -3.69964 12.103
          }
        }
      }
    }
  }
}
MOTION
Frames:	7
Frame Time:	0.00833333
16.2709 77.9459 2.74674 546.62 -156.426 -537.358 1.1239 1.309 21.8481 -3.81954 -7.94706 5.98326 -6.03161 16.9658 0.934734 7.83244 -29.4268 3.79886 -0.0 0.0 0.0 -0.0 0.0 0.0 -3.43055e-13 2.89038e-13 -1.16482e-13 56.7465 48.9114 13.1171 -24.6483 -20.36 51.7363 -0.380498 17.2601 2.50286 -3.88682e-10 -9.22887e-09 1.77569e-09 -6.47857e-10 -1.58814e-08 3.0746e-09 -3.88676e-10 -9.22886e-09 1.77568e-09 7.73091 5.47488 0.417314 -3.88682e-10 -9.22888e-09 1.7757e-09 2.90554 0.965183 0.102902 -3.88678e-10 -9.22889e-09 1.7757e-09 10.2786 0.731801 0.0259123 -3.88686e-10 -9.22888e-09 1.7757e-09 2.22167 -0.733487 -0.20892 -3.43031e-13 2.89054e-13 -1.16752e-13 -45.7751 -33.3819 16.6313 25.0873 -47.8872 -99.6447 4.51052 -49.9936 9.64238 -3.77184e-10 -3.27142e-10 9.9506e-10 -6.92005e-10 -5.42191e-10 1.69651e-09 -3.77192e-10 -3.27133e-10 9.95068e-10 -7.73091 5.47488 -0.417314 -3.77186e-10 -3.27145e-10 9.95053e-10 -2.90554 0.965183 -0.102902 -3.77186e-10 -3.27149e-10 9.95058e-10 -10.2786 0.731801 -0.0259123 -3.77178e-10 -3.27142e-10 9.9505e-10 -2.22167 -0.733487 0.20892 -2.03217e-16 0.0 -3.88251e-19 -23.1535 -44.9531 -6.76927 -2.36814 72.0751 2.96856 -3.67007 -6.8444 -14.0324 2.03217e-16 0.0 3.88251e-19 -15.5419 -30.1589 -7.88439 0.739115 53.8081 -1.18822 -1.86135 -25.8295 -4.21918
14.7733 78.249 3.05446 546.948 -160.473 -536.29 1.0238 1.19556 21.6791 -3.62944 -7.89234 5.96369 -5.98152 16.5593 2.6649 6.95952 -29.5653 7.07443 -0.0 0.0 0.0 -0.0 0.0 0.0 -4.1287e-13 2.9817e-13 -3.71976e-13 56.6639 49.879 13.736 -24.889 -20.8596 52.5586 -0.382445 17.3157 2.51126 -9.6775e-10 -1.50602e-08 3.0206e-09 -1.63261e-09 -2.60047e-08 5.23481e-09 -9.67744e-10 -1.50601e-08 3.02059e-09 7.73091 5.47488 0.417314 -9.67751e-10 -1.50602e-08 3.02061e-09 2.90554 0.965183 0.102902 -9.67746e-10 -1.50602e-08 3.02061e-09 10.2786 0.731801 0.0259123 -9.67754e-10 -1.50602e-08 3.02062e-09 2.22167 -0.733487 -0.20892 -4.12859e-13 2.98185e-13 -3.72274e-13 -47.1958 -32.917 15.4974 25.3812 -47.3816 -98.5591 3.73291 -46.8114 8.61071 -2.37691e-10 -1.11784e-10 5.23227e-10 -4.32468e-10 -1.71556e-10 8.94001e-10 -2.37694e-10 -1.11774e-10 5.23236e-10 -7.73091 5.47488 -0.417314 -2.37691e-10 -1.11788e-10 5.2322e-10 -2.90554 0.965183 -0.102902 -2.37693e-10 -1.1179e-10 5.23223e-10 -10.2786 0.731801 -0.0259123 -2.37683e-10 -1.11784e-10 5.23214e-10 -2.22167 -0.733487 0.20892 -2.03217e-16 0.0 -3.88251e-19 -22.9951 -44.1651 -2.60101 -1.66824 67.5526 2.30645 -4.85722 -9.10392 -16.7398 2.03217e-16 0.0 3.88251e-19 -15.0467 -29.2203 -9.94353 0.698445 52.7315 -1.11333 -2.96301 -25.4372 -6.39921
13.1081 78.7183 3.45426 547.17 -164.769 -535.706 0.782516 1.138 21.5755 -3.43205 -7.88137 5.96432 -6.06234 16.3444 3.71269 6.44083 -29.8358 9.08426 -0.0 0.0 0.0 -0.0 0.0 0.0 -3.06292e-13 2.32272e-13 -4.15996e-13 56.7662 51.1875 14.1496 -25.1078 -21.3277 53.3514 -0.356729 16.7818 2.42861 -1.7752e-09 -1.59852e-08 3.35973e-09 -3.0243e-09 -2.76268e-08 5.82977e-09 -1.7752e-09 -1.59852e-08 3.35971e-09 7.73091 5.47488 0.417314 -1.7752e-09 -1.59852e-08 3.35973e-09 2.90554 0.965183 0.102902 -1.7752e-09 -1.59852e-08 3.35973e-09 10.2786 0.731801 0.0259123 -1.77521e-09 -1.59852e-08 3.35974e-09 2.22167 -0.733487 -0.20892 -3.063e-13 2.32282e-13 -4.16284e-13 -48.7439 -32.1707 14.3517 25.5179 -47.1114 -98.0243 2.94089 -43.0439 7.51968 -1.73673e-10 7.50289e-12 2.17694e-10 -3.11763e-10 2.93505e-11 3.73856e-10 -1.73677e-10 7.51156e-12 2.17702e-10 -7.73091 5.47488 -0.417314 -1.73673e-10 7.49965e-12 2.17688e-10 -2.90554 0.965183 -0.102902 -1.73676e-10 7.49794e-12 2.17688e-10 -10.2786 0.731801 -0.0259123 -1.73666e-10 7.50376e-12 2.17677e-10 -2.22167 -0.733487 0.20892 -2.03217e-16 0.0 -3.88251e-19 -22.6698 -42.2243 2.07829 -1.15106 62.1072 1.79613 -6.12769 -10.8863 -19.7049 2.03217e-16 0.0 3.88251e-19 -14.3225 -28.1089 -11.9563 0.649535 51.3093 -1.00685 -4.15922 -24.8131 -8.91102
11.3632 79.2903 3.84819 547.476 -169.263 -535.106 0.418671 1.10668 21.4831 -3.19343 -7.88715 5.97238 -6.26314 16.2902 4.28964 6.14503 -30.2009 10.1831 -0.0 0.0 0.0 -0.0 0.0 0.0 -8.7933e-14 1.13065e-13 -3.26199e-13 57.0313 52.7091 14.4412 -25.308 -21.772 54.1014 -0.317173 15.8755 2.29 -2.7702e-09 -1.41499e-08 3.16825e-09 -4.7474e-09 -2.44674e-08 5.50839e-09 -2.7702e-09 -1.41499e-08 3.16824e-09 7.73091 5.47488 0.417314 -2.7702e-09 -1.41499e-08 3.16824e-09 2.90554 0.965183 0.102902 -2.7702e-09 -1.41499e-08 3.16824e-09 10.2786 0.731801 0.0259123 -2.7702e-09 -1.41499e-08 3.16825e-09 2.22167 -0.733487 -0.20892 -8.79662e-14 1.13068e-13 -3.26457e-13 -50.4037 -31.1858 13.2233 25.5535 -47.0527 -97.8892 2.22216 -38.7551 6.44235 -1.45631e-10 7.67131e-11 -1.48233e-12 -2.58019e-10 1.43261e-10 3.78017e-13 -1.45635e-10 7.67191e-11 -1.47676e-12 -7.73091 5.47488 -0.417314 -1.4563e-10 7.67116e-11 -1.48768e-12 -2.90554 0.965183 -0.102902 -1.45633e-10 7.67107e-11 -1.491e-12 -10.2786 0.731801 -0.0259123 -1.45623e-10 7.67153e-11 -1.50401e-12 -2.22167 -0.733487 0.20892 -2.03217e-16 0.0 -3.88251e-19 -22.7588 -39.1735 6.86975 -0.776268 55.7311 1.4073 -7.44545 -12.2441 -22.8232 2.03217e-16 0.0 3.88251e-19 -13.3887 -26.8507 -14.0 0.599618 49.5576 -0.880363 -5.3669 -23.9775 -11.6291
9.51345 79.8913 4.3212 547.699 -173.716 -534.596 0.163003 1.07338 21.426 -2.98123 -7.88911 5.98827 -6.49612 16.3084 4.52621 6.04027 -30.575 10.6394 -0.0 0.0 0.0 -0.0 0.0 0.0 1.33729e-13 4.91183e-15 -1.9409e-13 57.3956 54.321 14.6868 -25.5148 -22.2478 54.8751 -0.276398 14.8322 2.13248 -3.56212e-09 -1.11304e-08 2.71699e-09 -6.12292e-09 -1.92545e-08 4.7354e-09 -3.56212e-09 -1.11304e-08 2.71698e-09 7.73091 5.47488 0.417314 -3.56212e-09 -1.11304e-08 2.71699e-09 2.90554 0.965183 0.102902 -3.56211e-09 -1.11304e-08 2.71699e-09 10.2786 0.731801 0.0259123 -3.56212e-09 -1.11304e-08 2.71699e-09 2.22167 -0.733487 -0.20892 1.33671e-13 4.90803e-15 -1.94312e-13 -52.1446 -30.052 12.1924 25.538 -47.1018 -97.9596 1.70866 -34.7256 5.56554 -1.84467e-10 1.45518e-10 -1.42881e-10 -3.22695e-10 2.56647e-10 -2.41914e-10 -1.84474e-10 1.45521e-10 -1.42878e-10 -7.73091 5.47488 -0.417314 -1.84467e-10 1.45518e-10 -1.42886e-10 -2.90554 0.965183 -0.102902 -1.8447e-10 1.45518e-10 -1.42892e-10 -10.2786 0.731801 -0.0259123 -1.84459e-10 1.45521e-10 -1.42907e-10 -2.22167 -0.733487 0.20892 -2.03217e-16 0.0 -3.88251e-19 -23.1615 -35.6872 10.9112 -0.533484 49.3858 1.13674 -8.4588 -13.0991 -25.2269 2.03217e-16 0.0 3.88251e-19 -12.1086 -25.7047 -16.038 0.557667 47.7358 -0.758769 -6.45282 -23.0342 -14.2749
7.45443 80.5275 4.8353 547.475 -178.106 -534.223 0.246191 1.00988 21.4282 -2.86306 -7.86668 6.01241 -6.66771 16.3087 4.55119 6.09685 -30.8563 10.7212 -0.0 0.0 0.0 -0.0 0.0 0.0 2.50217e-13 -2.78266e-14 -1.1117e-13 57.7864 55.8988 14.9662 -25.7475 -22.8033 55.7431 -0.242536 13.8873 1.99128 -3.76032e-09 -8.50255e-09 2.27679e-09 -6.47192e-09 -1.47155e-08 3.97556e-09 -3.76032e-09 -8.50254e-09 2.27678e-09 7.73091 5.47488 0.417314 -3.76033e-09 -8.50254e-09 2.27678e-09 2.90554 0.965183 0.102902 -3.76032e-09 -8.50254e-09 2.27678e-09 10.2786 0.731801 0.0259123 -3.76032e-09 -8.50254e-09 2.27678e-09 2.22167 -0.733487 -0.20892 2.50141e-13 -2.78337e-14 -1.11369e-13 -53.9521 -28.8638 11.3295 25.5167 -47.1525 -98.0479 1.4193 -31.7461 4.98851 -3.21089e-10 2.63587e-10 -2.15082e-10 -5.57251e-10 4.55983e-10 -3.68501e-10 -3.21095e-10 2.63588e-10 -2.15079e-10 -7.73091 5.47488 -0.417314 -3.21088e-10 2.63589e-10 -2.15085e-10 -2.90554 0.965183 -0.102902 -3.21092e-10 2.63589e-10 -2.15092e-10 -10.2786 0.731801 -0.0259123 -3.21081e-10 2.63591e-10 -2.15107e-10 -2.22167 -0.733487 0.20892 -2.03217e-16 0.0 -3.88251e-19 -23.2993 -32.5104 13.6425 -0.3835 44.0335 0.953855 -8.76052 -13.4372 -26.0364 2.03217e-16 0.0 3.88251e-19 -10.3881 -24.923 -18.0473 0.525258 46.1035 -0.660833 -7.31997 -22.1007 -16.5856
5.22824 81.0426 5.36186 546.758 -182.674 -533.881 0.800287 0.915653 21.5524 -2.87396 -7.8171 6.06047 -6.74768 16.2608 4.30302 6.34867 -30.9678 10.3123 -0.0 0.0 0.0 -0.0 0.0 0.0 2.00598e-13 7.51968e-14 -6.10867e-14 58.392 57.4616 15.0962 -26.005 -23.4478 56.7549 -0.214275 13.0714 1.86999 -2.88345e-09 -6.31186e-09 1.79919e-09 -4.96329e-09 -1.09276e-08 3.13992e-09 -2.88345e-09 -6.31186e-09 1.79919e-09 7.73091 5.47488 0.417314 -2.88345e-09 -6.31186e-09 1.79919e-09 2.90554 0.965183 0.102902 -2.88344e-09 -6.31186e-09 1.79919e-09 10.2786 0.731801 0.0259123 -2.88345e-09 -6.31186e-09 1.79919e-09 2.22167 -0.733487 -0.20892 2.00517e-13 7.51913e-14 -6.12796e-14 -55.914 -27.5454 10.6013 25.4832 -47.211 -98.1758 1.29086 -30.1929 4.70581 -7.49497e-10 5.41411e-10 -2.05736e-10 -1.29653e-09 9.29765e-10 -3.63716e-10 -7.49502e-10 5.41413e-10 -2.05728e-10 -7.73091 5.47488 -0.417314 -7.49497e-10 5.41413e-10 -2.05737e-10 -2.90554 0.965183 -0.102902 -7.49501e-10 5.41413e-10 -2.05744e-10 -10.2786 0.731801 -0.0259123 -7.4949e-10 5.41415e-10 -2.05756e-10 -2.22167 -0.733487 0.20892 -2.03217e-16 0.0 -3.88251e-19 -22.4628 -29.7723 15.2908 -0.283755 39.8478 0.804891 -7.78322 -12.8827 -24.2871 2.03217e-16 0.0 3.88251e-19 -8.0711 -24.4833 -20.0713 0.494494 44.5989 -0.577472 -8.16288 -21.2264 -18.9095
